<svg width="61" height="27" viewBox="0 0 61 27" fill="none" xmlns="http://www.w3.org/2000/svg">
<path d="M0.819172 26C1.10717 24.8 1.49117 23.468 1.97117 22.004C2.47517 20.516 3.03917 18.968 3.66317 17.36C4.31117 15.752 4.97117 14.156 5.64317 12.572C6.31517 10.988 6.96317 9.476 7.58717 8.036C8.21117 6.572 8.93117 5.096 9.74717 3.608C9.91517 3.32 10.0592 3.056 10.1792 2.816C10.3232 2.576 10.4792 2.372 10.6472 2.204C9.71117 2.228 8.70317 2.348 7.62317 2.564C6.56717 2.756 5.54717 3.032 4.56317 3.392C3.60317 3.752 2.77517 4.172 2.07917 4.652C1.40717 5.132 0.975172 5.66 0.783172 6.236C0.759172 6.308 0.711172 6.344 0.639172 6.344C0.423172 6.344 0.315172 6.176 0.315172 5.84C0.315172 5.768 0.339172 5.66 0.387172 5.516C0.603172 4.892 0.867172 4.34 1.17917 3.86C1.51517 3.38 1.85117 2.972 2.18717 2.636C2.97917 1.82 3.86717 1.328 4.85117 1.16C5.83517 0.967999 6.87917 0.872 7.98317 0.872H16.1192C15.5432 1.304 14.9312 2.012 14.2832 2.996C13.6352 3.956 12.9992 5.036 12.3752 6.236C11.7512 7.436 11.1632 8.612 10.6112 9.764C10.0832 10.916 9.63917 11.888 9.27917 12.68C9.11117 13.064 8.87117 13.652 8.55917 14.444C8.24717 15.212 7.89917 16.088 7.51517 17.072C7.15517 18.056 6.80717 19.076 6.47117 20.132C6.13517 21.164 5.85917 22.124 5.64317 23.012C5.42717 23.9 5.31917 24.632 5.31917 25.208C5.31917 25.376 5.33117 25.532 5.35517 25.676C5.40317 25.796 5.43917 25.904 5.46317 26H0.819172ZM15.9631 26C16.2511 24.8 16.6351 23.468 17.1151 22.004C17.6191 20.516 18.1831 18.968 18.8071 17.36C19.4551 15.752 20.1151 14.156 20.7871 12.572C21.4591 10.988 22.1071 9.476 22.7311 8.036C23.3551 6.572 24.0751 5.096 24.8911 3.608C25.0591 3.32 25.2031 3.056 25.3231 2.816C25.4671 2.576 25.6231 2.372 25.7911 2.204C24.8551 2.228 23.8471 2.348 22.7671 2.564C21.7111 2.756 20.6911 3.032 19.7071 3.392C18.7471 3.752 17.9191 4.172 17.2231 4.652C16.5511 5.132 16.1191 5.66 15.9271 6.236C15.9031 6.308 15.8551 6.344 15.7831 6.344C15.5671 6.344 15.4591 6.176 15.4591 5.84C15.4591 5.768 15.4831 5.66 15.5311 5.516C15.7471 4.892 16.0111 4.34 16.3231 3.86C16.6591 3.38 16.9951 2.972 17.3311 2.636C18.1231 1.82 19.0111 1.328 19.9951 1.16C20.9791 0.967999 22.0231 0.872 23.1271 0.872H32.2351C33.8911 0.872 35.2111 1.124 36.1951 1.628C37.2031 2.132 37.9231 2.804 38.3551 3.644C38.7871 4.46 38.9551 5.336 38.8591 6.272C38.6911 8.168 38.0191 9.74 36.8431 10.988C35.6911 12.212 34.3351 13.124 32.7751 13.724C31.6951 14.132 30.4711 14.468 29.1031 14.732C27.7351 14.972 26.4031 15.092 25.1071 15.092C24.8191 15.092 24.5311 15.092 24.2431 15.092C23.9791 15.068 23.7151 15.044 23.4511 15.02C23.1391 15.788 22.8031 16.652 22.4431 17.612C22.1071 18.548 21.7831 19.496 21.4711 20.456C21.1831 21.416 20.9431 22.316 20.7511 23.156C20.5591 23.972 20.4631 24.656 20.4631 25.208C20.4631 25.568 20.5111 25.832 20.6071 26H15.9631ZM23.6671 14.444C24.7711 14.468 25.9231 14.372 27.1231 14.156C28.3231 13.916 29.4751 13.532 30.5791 13.004C31.6831 12.452 32.6191 11.744 33.3871 10.88C33.9391 10.256 34.3711 9.548 34.6831 8.756C34.9951 7.94 35.1511 7.148 35.1511 6.38C35.1511 5.396 34.8991 4.508 34.3951 3.716C33.8911 2.924 33.0871 2.408 31.9831 2.168C31.6951 2.096 31.4071 2.048 31.1191 2.024C30.8311 2 30.5191 1.976 30.1831 1.952C29.6551 2.6 29.1151 3.392 28.5631 4.328C28.0111 5.264 27.4711 6.248 26.9431 7.28C26.4391 8.288 25.9591 9.272 25.5031 10.232C25.0711 11.168 24.7111 11.984 24.4231 12.68L23.6671 14.444ZM55.1648 26.288C54.2528 26.288 53.5568 26.048 53.0768 25.568C52.5968 25.088 52.2728 24.476 52.1048 23.732C51.9368 22.988 51.8288 22.22 51.7808 21.428C51.7808 20.972 51.8048 20.432 51.8528 19.808C51.9008 19.184 51.9608 18.584 52.0328 18.008C52.1288 17.408 52.2008 16.964 52.2488 16.676H44.0048C42.4688 18.284 41.0048 19.856 39.6128 21.392C38.2448 22.904 36.9008 24.44 35.5808 26H31.9808C32.6048 25.424 33.4208 24.656 34.4288 23.696C35.4608 22.712 36.6248 21.596 37.9208 20.348C39.2168 19.1 40.5608 17.78 41.9528 16.388C43.3688 14.972 44.7848 13.556 46.2008 12.14C47.6168 10.7 48.9488 9.32 50.1968 8C51.4688 6.656 52.5968 5.444 53.5808 4.364C54.0608 3.836 54.5048 3.308 54.9128 2.78C55.3448 2.228 55.8248 1.772 56.3528 1.412C56.8808 1.052 57.5288 0.872 58.2968 0.872H60.8888C60.4808 1.256 60.0728 1.904 59.6648 2.816C59.2568 3.728 58.8848 4.712 58.5488 5.768C58.2368 6.824 57.9728 7.784 57.7568 8.648C57.4448 9.944 57.1208 11.348 56.7848 12.86C56.4728 14.372 56.2208 15.872 56.0288 17.36C55.8368 18.848 55.7768 20.228 55.8488 21.5C55.8728 21.956 55.9568 22.436 56.1008 22.94C56.2688 23.42 56.4968 23.84 56.7848 24.2C57.0968 24.536 57.4808 24.704 57.9368 24.704C58.3448 24.704 58.7888 24.548 59.2688 24.236L59.4848 24.56C59.1728 25.04 58.5728 25.448 57.6848 25.784C56.8208 26.12 55.9808 26.288 55.1648 26.288ZM40.7648 8.036C40.3808 7.628 40.0928 7.208 39.9008 6.776C39.7328 6.344 39.6488 5.936 39.6488 5.552C39.6488 5.072 39.7448 4.616 39.9368 4.184C40.1528 3.728 40.4048 3.344 40.6928 3.032C41.2688 2.384 41.9888 1.904 42.8528 1.592C43.7168 1.28 44.6288 1.088 45.5888 1.016C46.5728 0.92 47.5088 0.872 48.3968 0.872H56.4608C55.9568 1.376 55.1888 1.772 54.1568 2.06C53.1488 2.324 52.0448 2.528 50.8448 2.672C49.6448 2.792 48.4808 2.912 47.3528 3.032C46.2488 3.128 45.3368 3.26 44.6168 3.428C43.3448 3.716 42.3728 4.268 41.7008 5.084C41.0528 5.9 40.7408 6.884 40.7648 8.036ZM45.5888 14.876H52.5008C52.7888 13.292 53.1248 11.708 53.5088 10.124C53.9168 8.54 54.2768 7.148 54.5888 5.948C53.1248 7.34 51.6248 8.792 50.0888 10.304C48.5768 11.792 47.0768 13.316 45.5888 14.876Z" fill="#FF0000"/>
</svg>
