<svg width="346" height="211" viewBox="0 0 346 211" fill="none" xmlns="http://www.w3.org/2000/svg">
<g filter="url(#filter0_d_556_2356)">
<path d="M50.3318 86.784C50.2038 86.848 50.0758 86.88 49.9478 86.88C49.8198 86.88 49.5638 86.88 49.1798 86.88C48.2838 86.88 47.2278 86.72 46.0118 86.4C44.8598 86.144 43.7078 85.792 42.5558 85.344C41.4678 84.96 40.5078 84.512 39.6758 84C38.9078 83.488 38.4278 83.04 38.2358 82.656C38.1718 81.76 38.1398 80.832 38.1398 79.872C38.1398 78.912 38.1398 77.984 38.1398 77.088C38.1398 69.92 38.6518 62.432 39.6758 54.624C40.7638 46.816 42.5238 38.368 44.9558 29.28C45.2118 28.384 45.4678 27.264 45.7238 25.92C46.0438 24.512 46.3638 23.008 46.6838 21.408C45.1478 22.624 43.3238 24.576 41.2118 27.264C39.0998 29.888 36.8598 33.024 34.4918 36.672C32.1878 40.256 29.8518 44.224 27.4838 48.576C25.1798 52.864 23.0678 57.248 21.1478 61.728C19.2278 66.144 17.5638 70.528 16.1558 74.88C14.8118 79.232 13.9798 83.264 13.6598 86.976C10.5878 86.08 8.44379 85.184 7.22779 84.288C6.07579 83.392 5.49979 82.304 5.49979 81.024C5.49979 79.872 5.85179 78.24 6.55579 76.128C7.25979 74.016 8.25179 71.52 9.53179 68.64C10.8118 65.76 12.3798 62.56 14.2358 59.04C16.0918 55.456 18.1398 51.616 20.3798 47.52C22.9398 42.848 25.4358 38.464 27.8678 34.368C30.3638 30.272 32.7958 26.56 35.1638 23.232C37.5318 19.904 39.8358 17.024 42.0758 14.592C44.3798 12.16 46.6518 10.304 48.8918 9.02399C49.7878 9.02399 50.9718 9.24799 52.4438 9.69599C53.9798 10.144 55.4518 10.688 56.8598 11.328C58.3318 11.968 59.6118 12.64 60.6998 13.344C61.8518 13.984 62.4918 14.528 62.6198 14.976C61.7238 16.768 60.6678 19.456 59.4518 23.04C58.2358 26.624 56.9878 30.688 55.7078 35.232C54.4918 39.776 53.3078 44.608 52.1558 49.728C51.0678 54.784 50.2038 59.648 49.5638 64.32C51.0358 60.8 52.7318 57.152 54.6518 53.376C56.6358 49.536 58.7158 45.76 60.8918 42.048C63.0678 38.272 65.2758 34.624 67.5158 31.104C69.8198 27.584 72.0598 24.384 74.2358 21.504C76.4118 18.56 78.4278 16 80.2838 13.824C82.2038 11.648 83.8998 10.048 85.3718 9.02399C86.2678 9.02399 87.4518 9.24799 88.9238 9.69599C90.4598 10.144 91.9318 10.688 93.3398 11.328C94.8118 11.968 96.0918 12.64 97.1798 13.344C98.3318 13.984 98.9718 14.528 99.0998 14.976C97.0518 18.624 95.2598 23.072 93.7238 28.32C92.1878 33.568 90.8758 39.072 89.7878 44.832C88.7638 50.592 87.9638 56.32 87.3878 62.016C86.8758 67.648 86.6198 72.704 86.6198 77.184C86.6198 78.656 86.6198 80.192 86.6198 81.792C86.6198 83.392 86.6838 85.056 86.8118 86.784C85.9158 86.784 84.8278 86.656 83.5478 86.4C82.3318 86.208 81.1158 85.92 79.8998 85.536C78.7478 85.152 77.6918 84.704 76.7318 84.192C75.7718 83.744 75.0998 83.232 74.7158 82.656C74.6518 81.76 74.6198 80.832 74.6198 79.872C74.6198 78.912 74.6198 77.984 74.6198 77.088C74.6198 69.92 75.1318 62.432 76.1558 54.624C77.2438 46.816 79.0038 38.368 81.4358 29.28C81.6918 28.384 81.9798 27.168 82.2998 25.632C82.6198 24.096 82.9398 22.496 83.2598 20.832C81.4678 21.728 79.4198 23.456 77.1158 26.016C74.8758 28.512 72.5718 31.584 70.2038 35.232C67.8998 38.816 65.5958 42.816 63.2918 47.232C61.0518 51.648 59.0038 56.16 57.1478 60.768C55.3558 65.312 53.8198 69.856 52.5398 74.4C51.3238 78.88 50.5878 83.008 50.3318 86.784ZM98.7083 73.248C98.7083 72.672 98.7403 71.968 98.8043 71.136C98.9323 70.24 99.1243 69.088 99.3803 67.68C99.6363 66.208 99.9563 64.448 100.34 62.4C100.788 60.352 101.332 57.888 101.972 55.008C102.1 54.368 102.388 53.344 102.836 51.936C103.284 50.528 103.86 49.056 104.564 47.52C105.332 45.92 106.228 44.384 107.252 42.912C108.34 41.44 109.62 40.352 111.092 39.648C112.18 39.904 113.62 40.576 115.412 41.664C117.204 42.688 118.74 44.128 120.02 45.984C118.548 47.648 117.3 49.312 116.276 50.976C115.316 52.64 114.42 54.368 113.588 56.16C112.82 57.952 112.084 59.808 111.38 61.728C110.74 63.648 110.004 65.664 109.172 67.776C108.468 69.568 107.828 71.424 107.252 73.344C106.676 75.2 106.356 76.832 106.292 78.24C106.292 79.392 106.26 80.192 106.196 80.64C106.196 81.152 106.036 81.408 105.716 81.408C105.46 81.408 104.948 81.248 104.18 80.928C103.412 80.608 102.612 80.128 101.78 79.488C101.012 78.784 100.308 77.92 99.6683 76.896C99.0283 75.872 98.7083 74.656 98.7083 73.248ZM117.044 31.584C117.044 31.2 117.14 30.624 117.332 29.856C117.012 29.536 116.724 29.056 116.468 28.416C116.276 27.776 116.18 27.2 116.18 26.688C116.18 26.112 116.244 25.344 116.372 24.384C116.564 23.36 116.788 22.272 117.044 21.12C117.3 19.968 117.62 18.784 118.004 17.568C118.388 16.288 118.772 15.136 119.156 14.112C119.924 14.112 120.852 14.336 121.94 14.784C123.092 15.168 124.244 15.712 125.396 16.416C126.548 17.056 127.604 17.792 128.564 18.624C129.524 19.392 130.26 20.128 130.772 20.832C130.068 21.536 129.14 22.528 127.988 23.808C126.836 25.024 125.716 26.336 124.628 27.744C123.54 29.088 122.548 30.368 121.652 31.584C120.756 32.8 120.18 33.664 119.924 34.176C119.156 34.048 118.484 33.728 117.908 33.216C117.332 32.64 117.044 32.096 117.044 31.584ZM154.42 41.472C154.356 42.688 154.132 43.968 153.748 45.312C153.428 46.592 153.012 47.776 152.5 48.864C151.988 49.888 151.444 50.752 150.868 51.456C150.292 52.16 149.748 52.512 149.236 52.512C148.532 52.448 148.116 51.968 147.988 51.072C147.988 50.88 148.052 50.592 148.18 50.208C148.372 49.76 148.564 49.28 148.756 48.768C148.948 48.256 149.108 47.744 149.236 47.232C149.428 46.72 149.524 46.272 149.524 45.888C149.524 44.992 149.3 44.256 148.852 43.68C148.468 43.04 147.924 42.72 147.22 42.72C144.66 42.72 142.708 44.32 141.364 47.52C140.02 50.72 139.348 55.424 139.348 61.632C139.348 62.272 139.38 62.656 139.444 62.784C140.788 62.72 141.972 62.688 142.996 62.688C144.084 62.624 145.14 62.592 146.164 62.592C146.228 62.72 146.26 62.976 146.26 63.36C146.26 63.936 146.132 64.352 145.876 64.608C144.404 64.928 143.22 65.216 142.324 65.472C141.492 65.664 140.852 65.856 140.404 66.048C139.956 66.24 139.668 66.464 139.54 66.72C139.476 66.912 139.444 67.2 139.444 67.584C139.444 68.096 139.444 68.608 139.444 69.12C139.508 69.632 139.54 70.272 139.54 71.04C139.54 76.416 138.068 80.736 135.124 84C132.244 87.264 128.212 89.152 123.028 89.664C122.132 89.6 121.204 89.344 120.244 88.896C119.284 88.448 118.356 87.872 117.46 87.168C116.628 86.464 115.892 85.664 115.252 84.768C114.612 83.936 114.164 83.072 113.908 82.176C113.908 79.744 114.42 77.44 115.444 75.264C116.468 73.024 117.844 71.072 119.572 69.408C121.364 67.68 123.444 66.304 125.812 65.28C128.244 64.192 130.868 63.552 133.684 63.36C133.684 61.76 133.524 60.192 133.204 58.656C132.884 57.12 132.532 55.648 132.148 54.24C131.828 52.768 131.508 51.36 131.188 50.016C130.868 48.608 130.708 47.232 130.708 45.888C130.708 44.16 131.06 42.464 131.764 40.8C132.468 39.072 133.396 37.504 134.548 36.096C135.7 34.624 137.044 33.376 138.58 32.352C140.116 31.328 141.716 30.624 143.38 30.24C144.084 30.432 145.012 31.008 146.164 31.968C147.38 32.864 148.564 33.888 149.716 35.04C150.868 36.192 151.892 37.376 152.788 38.592C153.684 39.744 154.228 40.704 154.42 41.472ZM122.74 85.248C124.276 84.608 125.716 83.68 127.06 82.464C128.468 81.248 129.684 79.872 130.708 78.336C131.732 76.8 132.532 75.168 133.108 73.44C133.748 71.712 134.068 70.016 134.068 68.352C132.788 68.544 131.38 69.152 129.844 70.176C128.308 71.136 126.868 72.32 125.524 73.728C124.18 75.072 123.06 76.48 122.164 77.952C121.268 79.424 120.82 80.704 120.82 81.792C120.82 83.2 121.46 84.352 122.74 85.248ZM154.391 78.048C154.391 75.808 154.615 73.184 155.063 70.176C155.511 67.104 156.151 63.84 156.983 60.384C157.879 56.928 158.903 53.312 160.055 49.536C161.271 45.76 162.615 41.984 164.087 38.208C165.367 34.816 166.839 31.392 168.503 27.936C170.231 24.48 172.087 21.088 174.071 17.76C176.055 14.432 178.103 11.264 180.215 8.25599C182.391 5.24799 184.567 2.49599 186.743 -1.14441e-05C187.767 -1.14441e-05 188.855 0.127989 190.007 0.383989C191.223 0.63999 192.375 0.991989 193.463 1.43999C194.615 1.82399 195.639 2.30399 196.535 2.87999C197.495 3.45599 198.263 4.03199 198.839 4.60799C194.039 9.53599 189.719 14.528 185.879 19.584C182.039 24.576 178.999 29.28 176.759 33.696C175.543 36.128 174.423 38.4 173.399 40.512C172.439 42.624 171.543 44.736 170.711 46.848C169.879 48.896 169.111 50.976 168.407 53.088C167.767 55.136 167.159 57.312 166.583 59.616C178.871 43.936 187.991 36.096 193.943 36.096C195.607 36.096 197.399 36.64 199.319 37.728C201.239 38.816 202.935 40.288 204.407 42.144C202.423 44.32 200.375 46.944 198.263 50.016C196.151 53.088 194.199 56.192 192.407 59.328C190.679 62.4 189.239 65.28 188.087 67.968C186.999 70.592 186.455 72.544 186.455 73.824C186.455 74.464 186.551 74.912 186.743 75.168C186.935 75.36 187.351 75.456 187.991 75.456C188.951 75.456 189.719 75.328 190.295 75.072C190.871 74.816 191.223 74.688 191.351 74.688C191.671 75.2 191.863 75.552 191.927 75.744C191.991 75.936 192.023 76.096 192.023 76.224C192.023 76.48 191.639 76.864 190.871 77.376C190.103 77.824 189.175 78.304 188.087 78.816C187.063 79.264 186.039 79.68 185.015 80.064C183.991 80.448 183.223 80.64 182.711 80.64C182.071 80.64 181.431 80.448 180.791 80.064C180.151 79.744 179.575 79.296 179.063 78.72C178.615 78.144 178.231 77.504 177.911 76.8C177.655 76.096 177.527 75.36 177.527 74.592C177.527 73.632 177.783 72.224 178.295 70.368C178.871 68.448 179.639 66.24 180.599 63.744C181.559 61.184 182.711 58.4 184.055 55.392C185.399 52.384 186.839 49.312 188.375 46.176C188.375 45.92 188.247 45.792 187.991 45.792C187.799 45.792 187.287 46.048 186.455 46.56C185.687 47.072 184.951 47.584 184.247 48.096C181.943 49.824 179.607 51.968 177.239 54.528C174.935 57.024 172.663 59.776 170.423 62.784C168.247 65.792 166.167 68.992 164.183 72.384C162.263 75.712 160.599 79.072 159.191 82.464C158.999 82.912 158.711 83.328 158.327 83.712C157.943 84.096 157.623 84.288 157.367 84.288C157.175 84.288 156.887 84.064 156.503 83.616C156.183 83.168 155.863 82.592 155.543 81.888C155.287 81.248 155.031 80.576 154.775 79.872C154.519 79.168 154.391 78.56 154.391 78.048ZM204.177 73.248C204.177 72.672 204.209 71.968 204.273 71.136C204.401 70.24 204.593 69.088 204.849 67.68C205.105 66.208 205.425 64.448 205.809 62.4C206.257 60.352 206.801 57.888 207.441 55.008C207.569 54.368 207.857 53.344 208.305 51.936C208.753 50.528 209.329 49.056 210.033 47.52C210.801 45.92 211.697 44.384 212.721 42.912C213.809 41.44 215.089 40.352 216.561 39.648C217.649 39.904 219.089 40.576 220.881 41.664C222.673 42.688 224.209 44.128 225.489 45.984C224.017 47.648 222.769 49.312 221.745 50.976C220.785 52.64 219.889 54.368 219.057 56.16C218.289 57.952 217.553 59.808 216.849 61.728C216.209 63.648 215.473 65.664 214.641 67.776C213.937 69.568 213.297 71.424 212.721 73.344C212.145 75.2 211.825 76.832 211.761 78.24C211.761 79.392 211.729 80.192 211.665 80.64C211.665 81.152 211.505 81.408 211.185 81.408C210.929 81.408 210.417 81.248 209.649 80.928C208.881 80.608 208.081 80.128 207.249 79.488C206.481 78.784 205.777 77.92 205.137 76.896C204.497 75.872 204.177 74.656 204.177 73.248ZM222.513 31.584C222.513 31.2 222.609 30.624 222.801 29.856C222.481 29.536 222.193 29.056 221.937 28.416C221.745 27.776 221.649 27.2 221.649 26.688C221.649 26.112 221.713 25.344 221.841 24.384C222.033 23.36 222.257 22.272 222.513 21.12C222.769 19.968 223.089 18.784 223.473 17.568C223.857 16.288 224.241 15.136 224.625 14.112C225.393 14.112 226.321 14.336 227.409 14.784C228.561 15.168 229.713 15.712 230.865 16.416C232.017 17.056 233.073 17.792 234.033 18.624C234.993 19.392 235.729 20.128 236.241 20.832C235.537 21.536 234.609 22.528 233.457 23.808C232.305 25.024 231.185 26.336 230.097 27.744C229.009 29.088 228.017 30.368 227.121 31.584C226.225 32.8 225.649 33.664 225.393 34.176C224.625 34.048 223.953 33.728 223.377 33.216C222.801 32.64 222.513 32.096 222.513 31.584ZM282.257 50.208C281.233 50.272 279.985 50.944 278.513 52.224C277.041 53.44 275.441 55.04 273.713 57.024C272.049 58.944 270.289 61.088 268.433 63.456C266.641 65.824 264.881 68.192 263.153 70.56C261.489 72.864 259.921 75.04 258.449 77.088C256.977 79.136 255.729 80.768 254.705 81.984C253.297 81.408 252.081 80.576 251.057 79.488C250.033 78.336 249.297 76.928 248.849 75.264C249.169 73.28 249.617 71.232 250.193 69.12C250.769 66.944 251.505 64.704 252.401 62.4C253.361 60.096 254.513 57.696 255.857 55.2C257.265 52.64 258.961 49.952 260.945 47.136C259.985 47.2 258.673 47.904 257.009 49.248C255.345 50.528 253.553 52.224 251.633 54.336C249.713 56.384 247.729 58.72 245.681 61.344C243.633 63.904 241.713 66.432 239.921 68.928C237.553 72.256 235.569 75.168 233.969 77.664C232.433 80.16 231.313 81.632 230.609 82.08C228.945 80.864 227.793 79.552 227.153 78.144C226.513 76.736 226.033 75.168 225.713 73.44C225.777 71.904 226.001 69.984 226.385 67.68C226.833 65.376 227.441 63.008 228.209 60.576C229.681 55.904 231.569 51.264 233.873 46.656C236.241 42.048 238.513 37.824 240.689 33.984C242.481 34.368 244.081 34.976 245.489 35.808C246.961 36.64 248.497 37.856 250.097 39.456C249.457 41.44 248.465 43.552 247.121 45.792C245.777 47.968 244.369 50.272 242.897 52.704C241.425 55.136 240.081 57.632 238.865 60.192C237.649 62.752 236.849 65.344 236.465 67.968C238.257 65.408 240.369 62.464 242.801 59.136C245.297 55.808 247.825 52.672 250.385 49.728C253.009 46.784 255.601 44.288 258.161 42.24C260.721 40.192 263.025 39.168 265.073 39.168C265.841 39.168 266.673 39.296 267.569 39.552C268.465 39.808 269.297 40.128 270.065 40.512C270.833 40.896 271.473 41.28 271.985 41.664C272.497 41.984 272.785 42.24 272.849 42.432C272.529 43.712 271.761 45.472 270.545 47.712C269.393 49.888 268.145 52.192 266.801 54.624C265.457 57.056 264.209 59.424 263.057 61.728C261.905 63.968 261.233 65.76 261.041 67.104C264.177 62.816 267.121 58.944 269.873 55.488C272.625 51.968 275.217 48.96 277.649 46.464C280.081 43.968 282.321 42.048 284.369 40.704C286.481 39.36 288.465 38.688 290.321 38.688C291.601 38.688 292.785 39.04 293.873 39.744C295.025 40.384 295.825 41.344 296.273 42.624C295.697 44.544 294.737 46.848 293.393 49.536C292.113 52.224 290.801 55.072 289.457 58.08C288.113 61.024 286.897 63.936 285.809 66.816C284.785 69.696 284.273 72.288 284.273 74.592C284.273 75.936 284.465 76.832 284.849 77.28C285.233 77.664 285.777 77.856 286.481 77.856C287.249 77.856 287.953 77.728 288.593 77.472C289.297 77.152 289.809 76.992 290.129 76.992C290.513 77.248 290.737 77.568 290.801 77.952C290.865 78.336 290.897 78.688 290.897 79.008C289.617 80.032 288.305 80.864 286.961 81.504C285.617 82.208 284.113 82.56 282.449 82.56C280.913 82.56 279.633 82.304 278.609 81.792C277.649 81.28 276.849 80.576 276.209 79.68C275.569 78.784 275.121 77.76 274.865 76.608C274.609 75.456 274.481 74.208 274.481 72.864C274.481 70.688 274.769 68.544 275.345 66.432C275.921 64.256 276.593 62.208 277.361 60.288C278.193 58.304 279.057 56.48 279.953 54.816C280.849 53.088 281.617 51.552 282.257 50.208ZM333.295 40.896C333.935 40.896 334.671 41.024 335.503 41.28C336.399 41.472 337.199 41.76 337.903 42.144C338.607 42.464 339.183 42.816 339.631 43.2C340.143 43.584 340.399 43.936 340.399 44.256C339.119 46.944 337.935 49.664 336.847 52.416C335.759 55.104 334.831 57.696 334.063 60.192C333.295 62.688 332.687 65.024 332.239 67.2C331.855 69.376 331.663 71.264 331.663 72.864C331.663 74.656 331.855 76.16 332.239 77.376C332.623 78.528 333.263 79.36 334.159 79.872C333.391 80.384 332.399 80.8 331.183 81.12C329.967 81.44 328.879 81.6 327.919 81.6C324.463 81.6 322.735 79.232 322.735 74.496C322.735 70.848 323.951 65.856 326.383 59.52C325.103 62.464 323.631 65.248 321.967 67.872C320.303 70.432 318.607 72.704 316.879 74.688C315.151 76.672 313.391 78.304 311.599 79.584C309.871 80.8 308.271 81.536 306.799 81.792C304.431 81.664 302.511 80.544 301.039 78.432C299.567 76.256 298.831 73.504 298.831 70.176C298.831 66.592 299.599 62.816 301.135 58.848C302.671 54.88 304.623 51.2 306.991 47.808C309.423 44.416 312.047 41.6 314.863 39.36C317.679 37.056 320.399 35.84 323.023 35.712C323.663 35.904 324.367 36.288 325.135 36.864C325.967 37.44 326.735 38.112 327.439 38.88C328.207 39.648 328.847 40.448 329.359 41.28C329.871 42.048 330.159 42.72 330.223 43.296C327.663 43.68 325.007 44.928 322.255 47.04C319.567 49.152 317.103 51.712 314.863 54.72C312.687 57.664 310.895 60.832 309.487 64.224C308.079 67.616 307.375 70.784 307.375 73.728C307.375 74.944 307.823 75.712 308.719 76.032C310.575 75.648 312.719 74.08 315.151 71.328C317.583 68.512 320.527 64.192 323.983 58.368C324.623 57.216 325.327 55.936 326.095 54.528C326.927 53.12 327.759 51.648 328.591 50.112C329.423 48.576 330.223 47.04 330.991 45.504C331.823 43.904 332.591 42.368 333.295 40.896ZM105.03 148.56C109.83 143.312 114.118 137.744 117.894 131.856C121.734 125.968 125.286 119.344 128.55 111.984C130.214 112.176 131.814 112.624 133.35 113.328C134.886 114.032 136.102 114.832 136.998 115.728C133.478 119.952 130.278 123.792 127.398 127.248C124.582 130.704 121.99 133.968 119.622 137.04C117.254 140.048 115.046 142.96 112.998 145.776C111.014 148.528 109.062 151.312 107.142 154.128C106.182 157.392 105.286 160.688 104.454 164.016C103.622 167.344 102.886 170.544 102.246 173.616C101.606 176.624 101.094 179.408 100.71 181.968C100.39 184.592 100.23 186.832 100.23 188.688C99.5257 188.688 98.4057 188.528 96.8697 188.208C95.3337 187.952 93.7657 187.632 92.1657 187.248C90.5657 186.864 89.0937 186.48 87.7497 186.096C86.4697 185.712 85.7017 185.392 85.4457 185.136C86.4697 183.408 87.4617 181.296 88.4217 178.8C89.4457 176.24 90.4377 173.584 91.3977 170.832C92.3577 168.016 93.2857 165.2 94.1817 162.384C95.0777 159.504 95.9097 156.848 96.6777 154.416C95.0777 149.424 93.5097 144.752 91.9737 140.4C90.5017 135.984 89.0617 132.016 87.6537 128.496C86.2457 124.912 84.9017 121.84 83.6217 119.28C82.3417 116.72 81.1257 114.768 79.9737 113.424C80.6137 113.168 81.5737 112.912 82.8537 112.656C84.1977 112.4 85.6377 112.144 87.1737 111.888C88.7737 111.632 90.3737 111.44 91.9737 111.312C93.6377 111.12 95.1097 110.992 96.3897 110.928C96.3897 112.528 96.5177 114.48 96.7737 116.784C97.0937 119.088 97.4777 121.552 97.9257 124.176C98.4377 126.8 99.0137 129.456 99.6537 132.144C100.294 134.832 100.934 137.296 101.574 139.536C102.214 141.776 102.822 143.728 103.398 145.392C104.038 146.992 104.582 148.048 105.03 148.56ZM146.896 179.568C145.68 178.544 144.848 177.264 144.4 175.728C144.016 174.192 143.824 172.88 143.824 171.792C143.824 170.448 143.984 169.296 144.304 168.336C144.048 168.336 143.472 168.848 142.576 169.872C141.68 170.896 140.688 172.112 139.6 173.52C138.576 174.928 137.552 176.304 136.528 177.648C135.504 178.992 134.736 179.984 134.224 180.624C133.392 181.52 132.592 182.224 131.824 182.736C131.12 183.248 130.544 183.536 130.096 183.6C129.072 183.536 127.984 183.312 126.832 182.928C125.744 182.608 124.688 182.128 123.664 181.488C122.704 180.848 121.84 180.08 121.072 179.184C120.368 178.288 119.888 177.264 119.632 176.112C119.632 174.32 119.664 172.848 119.728 171.696C119.856 170.544 120.08 169.296 120.4 167.952C120.976 165.52 121.808 162.768 122.896 159.696C124.048 156.624 125.36 153.616 126.832 150.672C128.304 147.664 129.936 144.88 131.728 142.32C133.584 139.696 135.536 137.648 137.584 136.176C138.16 136.176 138.832 136.24 139.6 136.368C140.368 136.432 141.136 136.592 141.904 136.848C142.736 137.104 143.504 137.424 144.208 137.808C144.976 138.128 145.616 138.576 146.128 139.152C145.552 139.792 144.08 141.936 141.712 145.584C139.408 149.232 136.816 154.48 133.936 161.328C133.616 162.032 133.232 163.056 132.784 164.4C132.336 165.744 131.888 167.152 131.44 168.624C130.992 170.096 130.608 171.536 130.288 172.944C130.032 174.352 129.904 175.472 129.904 176.304C129.904 176.816 129.968 177.2 130.096 177.456C130.288 177.712 130.448 177.904 130.576 178.032C131.536 177.648 132.752 176.592 134.224 174.864C135.696 173.136 137.744 170.48 140.368 166.896C141.008 166 141.744 164.976 142.576 163.824C143.472 162.672 144.368 161.456 145.264 160.176C146.16 158.832 146.992 157.456 147.76 156.048C148.592 154.64 149.264 153.232 149.776 151.824C150.032 151.056 150.352 150.16 150.736 149.136C151.184 148.048 151.696 146.928 152.272 145.776C152.912 144.624 153.616 143.472 154.384 142.32C155.216 141.104 156.176 139.984 157.264 138.96C158.096 138.96 158.992 139.056 159.952 139.248C160.912 139.44 161.808 139.696 162.64 140.016C163.536 140.272 164.304 140.592 164.944 140.976C165.584 141.296 166.064 141.648 166.384 142.032C165.232 144.848 163.952 147.632 162.544 150.384C161.136 153.136 159.824 155.856 158.608 158.544C157.392 161.168 156.368 163.792 155.536 166.416C154.704 169.04 154.288 171.6 154.288 174.096C154.288 175.44 154.384 176.624 154.576 177.648C154.832 178.608 155.088 179.44 155.344 180.144C155.6 180.784 155.824 181.328 156.016 181.776C156.272 182.224 156.4 182.608 156.4 182.928C156.4 182.992 156.336 183.088 156.208 183.216C156.144 183.28 156.08 183.312 156.016 183.312C155.568 183.312 154.992 183.216 154.288 183.024C153.584 182.832 152.784 182.544 151.888 182.16C151.056 181.84 150.192 181.456 149.296 181.008C148.464 180.56 147.664 180.08 146.896 179.568ZM223.335 152.208C222.311 152.272 221.063 152.944 219.591 154.224C218.119 155.44 216.519 157.04 214.791 159.024C213.127 160.944 211.367 163.088 209.511 165.456C207.719 167.824 205.959 170.192 204.231 172.56C202.567 174.864 200.999 177.04 199.527 179.088C198.055 181.136 196.807 182.768 195.783 183.984C194.375 183.408 193.159 182.576 192.135 181.488C191.111 180.336 190.375 178.928 189.927 177.264C190.247 175.28 190.695 173.232 191.271 171.12C191.847 168.944 192.583 166.704 193.479 164.4C194.439 162.096 195.591 159.696 196.935 157.2C198.343 154.64 200.039 151.952 202.023 149.136C201.063 149.2 199.751 149.904 198.087 151.248C196.423 152.528 194.631 154.224 192.711 156.336C190.791 158.384 188.807 160.72 186.759 163.344C184.711 165.904 182.791 168.432 180.999 170.928C178.631 174.256 176.647 177.168 175.047 179.664C173.511 182.16 172.391 183.632 171.687 184.08C170.023 182.864 168.871 181.552 168.231 180.144C167.591 178.736 167.111 177.168 166.791 175.44C166.855 173.904 167.079 171.984 167.463 169.68C167.911 167.376 168.519 165.008 169.287 162.576C170.759 157.904 172.647 153.264 174.951 148.656C177.319 144.048 179.591 139.824 181.767 135.984C183.559 136.368 185.159 136.976 186.567 137.808C188.039 138.64 189.575 139.856 191.175 141.456C190.535 143.44 189.543 145.552 188.199 147.792C186.855 149.968 185.447 152.272 183.975 154.704C182.503 157.136 181.159 159.632 179.943 162.192C178.727 164.752 177.927 167.344 177.543 169.968C179.335 167.408 181.447 164.464 183.879 161.136C186.375 157.808 188.903 154.672 191.463 151.728C194.087 148.784 196.679 146.288 199.239 144.24C201.799 142.192 204.103 141.168 206.151 141.168C206.919 141.168 207.751 141.296 208.647 141.552C209.543 141.808 210.375 142.128 211.143 142.512C211.911 142.896 212.551 143.28 213.063 143.664C213.575 143.984 213.863 144.24 213.927 144.432C213.607 145.712 212.839 147.472 211.623 149.712C210.471 151.888 209.223 154.192 207.879 156.624C206.535 159.056 205.287 161.424 204.135 163.728C202.983 165.968 202.311 167.76 202.119 169.104C205.255 164.816 208.199 160.944 210.951 157.488C213.703 153.968 216.295 150.96 218.727 148.464C221.159 145.968 223.399 144.048 225.447 142.704C227.559 141.36 229.543 140.688 231.399 140.688C232.679 140.688 233.863 141.04 234.951 141.744C236.103 142.384 236.903 143.344 237.351 144.624C236.775 146.544 235.815 148.848 234.471 151.536C233.191 154.224 231.879 157.072 230.535 160.08C229.191 163.024 227.975 165.936 226.887 168.816C225.863 171.696 225.351 174.288 225.351 176.592C225.351 177.936 225.543 178.832 225.927 179.28C226.311 179.664 226.855 179.856 227.559 179.856C228.327 179.856 229.031 179.728 229.671 179.472C230.375 179.152 230.887 178.992 231.207 178.992C231.591 179.248 231.815 179.568 231.879 179.952C231.943 180.336 231.975 180.688 231.975 181.008C230.695 182.032 229.383 182.864 228.039 183.504C226.695 184.208 225.191 184.56 223.527 184.56C221.991 184.56 220.711 184.304 219.687 183.792C218.727 183.28 217.927 182.576 217.287 181.68C216.647 180.784 216.199 179.76 215.943 178.608C215.687 177.456 215.559 176.208 215.559 174.864C215.559 172.688 215.847 170.544 216.423 168.432C216.999 166.256 217.671 164.208 218.439 162.288C219.271 160.304 220.135 158.48 221.031 156.816C221.927 155.088 222.695 153.552 223.335 152.208ZM274.373 142.896C275.013 142.896 275.749 143.024 276.581 143.28C277.477 143.472 278.277 143.76 278.981 144.144C279.685 144.464 280.261 144.816 280.709 145.2C281.221 145.584 281.477 145.936 281.477 146.256C280.197 148.944 279.013 151.664 277.925 154.416C276.837 157.104 275.909 159.696 275.141 162.192C274.373 164.688 273.765 167.024 273.317 169.2C272.933 171.376 272.741 173.264 272.741 174.864C272.741 176.656 272.933 178.16 273.317 179.376C273.701 180.528 274.341 181.36 275.237 181.872C274.469 182.384 273.477 182.8 272.261 183.12C271.045 183.44 269.957 183.6 268.997 183.6C265.541 183.6 263.813 181.232 263.813 176.496C263.813 172.848 265.029 167.856 267.461 161.52C266.181 164.464 264.709 167.248 263.045 169.872C261.381 172.432 259.685 174.704 257.957 176.688C256.229 178.672 254.469 180.304 252.677 181.584C250.949 182.8 249.349 183.536 247.877 183.792C245.509 183.664 243.589 182.544 242.117 180.432C240.645 178.256 239.909 175.504 239.909 172.176C239.909 168.592 240.677 164.816 242.213 160.848C243.749 156.88 245.701 153.2 248.069 149.808C250.501 146.416 253.125 143.6 255.941 141.36C258.757 139.056 261.477 137.84 264.101 137.712C264.741 137.904 265.445 138.288 266.213 138.864C267.045 139.44 267.813 140.112 268.517 140.88C269.285 141.648 269.925 142.448 270.437 143.28C270.949 144.048 271.237 144.72 271.301 145.296C268.741 145.68 266.085 146.928 263.333 149.04C260.645 151.152 258.181 153.712 255.941 156.72C253.765 159.664 251.973 162.832 250.565 166.224C249.157 169.616 248.453 172.784 248.453 175.728C248.453 176.944 248.901 177.712 249.797 178.032C251.653 177.648 253.797 176.08 256.229 173.328C258.661 170.512 261.605 166.192 265.061 160.368C265.701 159.216 266.405 157.936 267.173 156.528C268.005 155.12 268.837 153.648 269.669 152.112C270.501 150.576 271.301 149.04 272.069 147.504C272.901 145.904 273.669 144.368 274.373 142.896Z" fill="black"/>
</g>
<defs>
<filter id="filter0_d_556_2356" x="0" y="0" width="345.899" height="210.188" filterUnits="userSpaceOnUse" color-interpolation-filters="sRGB">
<feFlood flood-opacity="0" result="BackgroundImageFix"/>
<feColorMatrix in="SourceAlpha" type="matrix" values="0 0 0 0 0 0 0 0 0 0 0 0 0 0 0 0 0 0 127 0" result="hardAlpha"/>
<feOffset dy="16"/>
<feGaussianBlur stdDeviation="2.75"/>
<feComposite in2="hardAlpha" operator="out"/>
<feColorMatrix type="matrix" values="0 0 0 0 0.957895 0 0 0 0 0.510877 0 0 0 0 0 0 0 0 0.52 0"/>
<feBlend mode="normal" in2="BackgroundImageFix" result="effect1_dropShadow_556_2356"/>
<feBlend mode="normal" in="SourceGraphic" in2="effect1_dropShadow_556_2356" result="shape"/>
</filter>
</defs>
</svg>
